<?xml version="1.0" encoding="UTF-8"?>
<svg width="160px" height="160px" viewBox="0 0 160 160" version="1.1" xmlns="http://www.w3.org/2000/svg" xmlns:xlink="http://www.w3.org/1999/xlink">
    <!-- Generator: Sketch 63 (92445) - https://sketch.com -->
    <title>编组 5</title>
    <desc>Created with Sketch.</desc>
    <g id="页面-1" stroke="none" stroke-width="1" fill="none" fill-rule="evenodd">
        <g id="后台图标" transform="translate(-230.000000, -81.000000)">
            <g id="编组-5" transform="translate(230.000000, 81.000000)">
                <rect id="矩形" fill-opacity="0.01" fill="#D8D8D8" x="0" y="0" width="160" height="160"></rect>
                <g id="wenjianjia" transform="translate(16.000000, 16.000000)" fill-rule="nonzero">
                    <path d="M118.787304,27.3058979 C122.858967,27.0831204 126.534435,30.0402625 127.6834,34.4622429 C127.902831,35.4693192 128.006451,36.5069129 127.99426,37.5414548 L127.99426,117.689467 C128.082642,120.448246 127.147013,123.121576 125.415947,125.062486 C123.67269,127.018656 121.295521,128.080663 118.839114,127.995214 L9.15411699,127.995214 C6.7159953,128.056249 4.36016028,127.000345 2.62299868,125.062486 C0.898027676,123.139886 -0.0497921761,120.500126 0.00201784269,117.759657 L0.00201784269,27.3730362 L118.787304,27.3730362" id="路径" fill="#B0D6FF"></path>
                    <path d="M73.4117647,24.296241 C73.310825,17.6557522 71.0809742,11.3486642 67.2238521,6.80645965 C63.3422601,2.23366798 58.1759801,-0.207193429 52.85982,0.0160933804 L10.5018307,0.0160933804 C7.74586961,-0.158253944 5.04802537,1.08970532 3.05370072,3.48162712 C1.06549343,5.85519667 -0.0387262208,9.16473558 0.00103800527,12.6088582 L0.00103800527,24.4705882 L73.4117647,24.4705882" id="路径" fill="#5CA2FF"></path>
                </g>
            </g>
        </g>
    </g>
</svg>