<?xml version="1.0" encoding="UTF-8"?>
<svg width="160px" height="160px" viewBox="0 0 160 160" version="1.1" xmlns="http://www.w3.org/2000/svg" xmlns:xlink="http://www.w3.org/1999/xlink">
    <!-- Generator: Sketch 63 (92445) - https://sketch.com -->
    <title>编组 3</title>
    <desc>Created with Sketch.</desc>
    <g id="页面-1" stroke="none" stroke-width="1" fill="none" fill-rule="evenodd">
        <g id="后台图标" transform="translate(-578.000000, -81.000000)">
            <g id="编组-3" transform="translate(578.000000, 81.000000)">
                <rect id="矩形" fill-opacity="0.01" fill="#D8D8D8" x="0" y="0" width="160" height="160"></rect>
                <g id="riqiqishu-2" transform="translate(16.000000, 16.000000)" fill="#707070" fill-rule="nonzero">
                    <path d="M103.996263,8.01120975 L88.0037366,8.01120975 L88.0037366,4.00560488 C88.0037366,1.79337039 86.2103662,0 83.9981318,0 C81.7858973,0 79.9925269,1.79337039 79.9925269,4.00560488 L79.9925269,8.01120975 L48.0074731,8.01120975 L48.0074731,4.00560488 C48.0074731,1.79337039 46.2141027,0 44.0018683,0 C41.7896338,0 39.9962634,1.79337039 39.9962634,4.00560488 L39.9962634,8.01120975 L23.9140589,8.01120975 C10.9593069,8.00631033 0.356254782,18.3177785 0,31.267632 L0,104.624008 C0.356254782,117.573861 10.9593069,127.885329 23.9140589,127.880431 L103.996263,127.880431 C117.203633,127.880431 127.910397,117.173741 127.910397,103.966371 L127.910397,31.9850538 C127.926204,25.6322988 125.413707,19.5342942 120.927229,15.0365994 C116.44075,10.5389047 110.349038,8.0111899 103.996263,8.01120975 Z M119.98879,103.996263 C119.97234,112.821869 112.821869,119.97234 103.996263,119.98879 L23.9140589,119.98879 C15.0816302,119.98879 7.921532,112.828692 7.921532,103.996263 L7.921532,51.9831854 L119.98879,51.9831854 L119.98879,103.996263 Z M119.98879,44.0018683 L8.01109464,44.0018683 L8.01109464,32.0448389 C7.9780961,23.2240021 15.0932983,16.0419277 23.9140589,15.9925269 L39.9065858,15.9925269 L39.9065858,23.9140589 C39.9069765,26.126017 41.7002324,27.9189561 43.9121906,27.9189561 C46.1241487,27.9189561 47.9174046,26.126017 47.9177954,23.9140589 L47.9177954,15.9925269 L79.9028491,15.9925269 L79.9028491,23.9140589 C79.9028491,26.1262934 81.6962195,27.9196638 83.908454,27.9196638 C86.1206885,27.9196638 87.9140589,26.1262934 87.9140589,23.9140589 L87.9140589,15.9925269 L103.906586,15.9925269 C112.732192,16.0089772 119.882662,23.159448 119.899113,31.9850538 L119.98879,44.0018683 Z" id="形状"></path>
                    <path d="M37.0368986,77.7206913 L23.3162074,77.7206913 C20.7902979,77.7206913 18.7426438,75.6730369 18.7426438,73.1471275 C18.7426438,70.6212181 20.7902979,68.5735637 23.3162074,68.5735637 L37.0368986,68.5735637 C38.6708756,68.5735637 40.1807327,69.44528 40.9977212,70.8603456 C41.8147097,72.2754111 41.8147097,74.0188439 40.9977212,75.4339094 C40.1807327,76.848975 38.6708756,77.7206913 37.0368986,77.7206913 L37.0368986,77.7206913 Z M73.5955161,77.7206913 L55.3012611,77.7206913 C52.7753517,77.7206913 50.7276976,75.6730369 50.7276976,73.1471275 C50.7276976,70.6212181 52.7753517,68.5735637 55.3012611,68.5735637 L73.5955161,68.5735637 C76.1214256,68.5735637 78.1690797,70.6212181 78.1690797,73.1471275 C78.1690797,75.6730369 76.1214256,77.7206913 73.5955161,77.7206913 L73.5955161,77.7206913 Z M105.58057,77.7206913 L91.8897711,77.7206913 C90.2557941,77.7206913 88.7459371,76.848975 87.9289486,75.4339094 C87.1119601,74.0188439 87.1119601,72.2754111 87.9289486,70.8603456 C88.7459371,69.44528 90.2557941,68.5735637 91.8897711,68.5735637 L105.58057,68.5735637 C107.214547,68.5735637 108.724404,69.44528 109.541392,70.8603456 C110.358381,72.2754111 110.358381,74.0188439 109.541392,75.4339094 C108.724404,76.848975 107.214547,77.7206913 105.58057,77.7206913 L105.58057,77.7206913 Z M37.0368986,105.132181 L23.3162074,105.132181 C20.7902979,105.132181 18.7426436,103.084527 18.7426436,100.558618 C18.7426436,98.032708 20.7902979,95.9850538 23.3162074,95.9850538 L37.0368986,95.9850538 C39.562808,95.9850538 41.6104621,98.0327081 41.6104621,100.558618 C41.6104621,103.084527 39.562808,105.132181 37.0368986,105.132181 L37.0368986,105.132181 Z M73.5955161,105.132181 L55.3012611,105.132181 C52.7753516,105.132181 50.7276974,103.084527 50.7276974,100.558618 C50.7276974,98.032708 52.7753516,95.9850538 55.3012611,95.9850538 L73.5955161,95.9850538 C76.1214255,95.9850538 78.1690796,98.0327081 78.1690796,100.558618 C78.1690796,103.084527 76.1214255,105.132181 73.5955161,105.132181 L73.5955161,105.132181 Z M105.58057,105.132181 L91.8897711,105.132181 C89.3638616,105.132181 87.3162074,103.084527 87.3162074,100.558618 C87.3162074,98.032708 89.3638616,95.9850538 91.8897711,95.9850538 L105.58057,95.9850538 C107.214547,95.9850538 108.724404,96.85677 109.541392,98.2718355 C110.358381,99.6869011 110.358381,101.430334 109.541392,102.845399 C108.724404,104.260465 107.214547,105.132181 105.58057,105.132181 L105.58057,105.132181 Z" id="形状"></path>
                </g>
            </g>
        </g>
    </g>
</svg>