<?xml version="1.0" standalone="no"?><!DOCTYPE svg PUBLIC "-//W3C//DTD SVG 1.1//EN" "http://www.w3.org/Graphics/SVG/1.1/DTD/svg11.dtd"><svg t="1611128023272" class="icon" viewBox="0 0 1024 1024" version="1.1" xmlns="http://www.w3.org/2000/svg" p-id="2580" xmlns:xlink="http://www.w3.org/1999/xlink" width="200" height="200"><defs><style type="text/css"></style></defs><path d="M434.36 922c0 18.85-13.91 34.6-31.97 37.51v0.49h-270.9C93.87 960 63 928.1 63 888.58V71.94C63 32.64 93.68 0.52 131.48 0.52h760.03c37.64 0 68.48 31.9 68.48 71.42V447.4c0 20.07-16.42 36.5-36.5 36.5-20.07 0-36.5-16.42-36.5-36.5V268.16c0-0.73 0.03-1.45 0.07-2.17l-1.59-190.51-745.95 1.99-2.32 807.73 74.92-0.34c2.58-0.56 5.26-0.86 8-0.86h176.24c0.3 0 0.61 0.02 0.91 0.02l5.12-0.02v0.49c18.06 2.91 31.97 18.66 31.97 37.51zM265 188c-22 0-40 18-40 40s18 40 40 40h496c22 0 40-18 40-40s-18-40-40-40H265z m283 249.94c0-22-18-40-40-40H264.24c-22 0-40 18-40 40s18 40 40 40H508c22 0 40-18 40-40zM436 608H263.76c-22 0-40 18-40 40s18 40 40 40H436c22 0 40-18 40-40s-18-40-40-40z m457.69 120.54a43.055 43.055 0 0 1-11.21 47.79l-27.73 26.55 6.49 37.17a41.888 41.888 0 0 1-17.7 41.89 43.649 43.649 0 0 1-44.83 0l-31.86-16.52-31.85 17.1c-13.81 8.26-31.04 8.26-44.83 0a45.37 45.37 0 0 1-10.62-10.62 40.116 40.116 0 0 1-7.08-31.27l5.9-37.17-27.73-27.14c-11.63-11.32-15.56-28.4-10.03-43.66a42.501 42.501 0 0 1 34.22-27.73l37.17-5.31 15.93-32.45a43.08 43.08 0 0 1 38.94-24.19h5.9a40.73 40.73 0 0 1 33.04 23.01l15.93 29.49 37.76 5.31c15.66 2.17 28.85 12.86 34.19 27.75zM838 750.1l-38.72-5.68a21.729 21.729 0 0 1-14.98-10.84l-17.03-35.11-17.55 35.11a19.6 19.6 0 0 1-14.46 10.84l-39.24 5.68 28.39 27.36a19.64 19.64 0 0 1 5.68 17.04l-6.71 39.23 34.59-18.59c5.8-3.12 12.78-3.12 18.58 0l34.59 18.07-6.71-38.72a19.64 19.64 0 0 1 5.68-17.04L838 750.1z m186 17.9c0 141.38-114.62 256-256 256S512 909.38 512 768s114.62-256 256-256 256 114.62 256 256z m-63.82-1.79c0-106.64-86.45-193.09-193.09-193.09S574 659.57 574 766.21 660.45 959.3 767.09 959.3s193.09-86.45 193.09-193.09z" p-id="2581"></path></svg>