<?xml version="1.0" encoding="UTF-8"?>
<svg width="130px" height="130px" viewBox="0 0 130 130" version="1.1" xmlns="http://www.w3.org/2000/svg" xmlns:xlink="http://www.w3.org/1999/xlink">
    <!-- Generator: Sketch 63 (92445) - https://sketch.com -->
    <title>编组 4</title>
    <desc>Created with Sketch.</desc>
    <g id="页面-1" stroke="none" stroke-width="1" fill="none" fill-rule="evenodd">
        <g id="后台图标" transform="translate(-433.000000, -96.000000)">
            <g id="编组-4" transform="translate(418.000000, 82.000000)">
                <rect id="矩形" fill-opacity="0.01" fill="#D8D8D8" opacity="0" x="0" y="0" width="160" height="159"></rect>
                <g id="jian" transform="translate(15.000000, 14.000000)" fill="#BFBFBF" fill-rule="nonzero">
                    <path d="M65,0 C100.9008,0 130,29.0992 130,65 C130,100.9008 100.9008,130 65,130 C29.0992,130 0,100.9008 0,65 C0,29.0992 29.0992,0 65,0 Z M96.2,61.1 L39,61.1 C36.8460895,61.1 35.1,62.8460895 35.1,65 C35.1,67.1539105 36.8460895,68.9 39,68.9 L96.2,68.9 C97.5933358,68.9 98.8808313,68.1566643 99.5774992,66.95 C100.274167,65.7433358 100.274167,64.2566642 99.5774992,63.05 C98.8808313,61.8433357 97.5933358,61.1 96.2,61.1 L96.2,61.1 Z" id="形状"></path>
                </g>
            </g>
        </g>
    </g>
</svg>