<?xml version="1.0" encoding="UTF-8"?>
<svg width="128px" height="128px" viewBox="0 0 128 128" version="1.1" xmlns="http://www.w3.org/2000/svg" xmlns:xlink="http://www.w3.org/1999/xlink">
    <!-- Generator: Sketch 63 (92445) - https://sketch.com -->
    <title>编组</title>
    <desc>Created with Sketch.</desc>
    <g id="页面-1" stroke="none" stroke-width="1" fill="none" fill-rule="evenodd">
        <g id="后台图标" transform="translate(-607.000000, -335.000000)">
            <g id="编组" transform="translate(591.000000, 319.000000)">
                <g id="hao" transform="translate(16.000000, 16.000000)" fill="#FFFFFF" fill-rule="nonzero">
                    <path d="M122.776383,57.4478888 L69.3649641,57.4478888 L69.3649641,5.63080464 C69.3649641,3.23924582 66.9734053,0.0505054439 63.784665,0.0505054439 C60.5959246,0.0505054439 58.2043658,3.23924582 58.2043658,6.42798619 L58.2043658,58.2450704 L6.38711162,58.2450704 C3.19837125,57.4478846 0.00963087545,60.6366292 0.00963087545,63.8253696 C0.00963087545,67.0141099 3.19837125,69.4056688 5.58993007,69.4056688 L57.4070143,69.4056688 L57.4070143,121.222753 C58.2042001,124.411493 60.5957546,127.600234 63.784495,127.600234 C66.9732354,127.600234 69.3647942,124.411493 69.3647942,122.019934 L69.3647942,69.4056121 L121.979117,69.4056121 C125.167857,69.4056121 127.559416,66.2168717 127.559416,63.8253129 C127.559416,61.4337541 125.965039,57.4478322 122.776298,57.4478322 L122.776383,57.4478888 Z" id="路径"></path>
                </g>
                <rect id="矩形备份" x="0" y="0" width="160" height="160"></rect>
            </g>
        </g>
    </g>
</svg>