<?xml version="1.0" encoding="UTF-8"?>
<svg width="105px" height="104px" viewBox="0 0 105 104" version="1.1" xmlns="http://www.w3.org/2000/svg" xmlns:xlink="http://www.w3.org/1999/xlink">
    <!-- Generator: Sketch 63 (92445) - https://sketch.com -->
    <title>编组备份</title>
    <desc>Created with Sketch.</desc>
    <g id="页面-1" stroke="none" stroke-width="1" fill="none" fill-rule="evenodd">
        <g id="后台图标" transform="translate(-238.000000, -347.000000)">
            <g id="编组备份" transform="translate(190.000000, 299.000000)">
                <path d="M105.918326,92.6931447 L105.920046,35.3863736 C105.920126,32.7414445 103.275304,29.2150629 99.7487382,29.2150629 C96.2221728,29.2150629 93.577139,32.7418151 93.5770331,36.268382 L93.5753125,93.5751531 L36.2683789,93.5768738 C32.74184,92.6953371 29.2150629,96.2220146 29.2150629,99.7485816 C29.2150629,103.275148 32.7414429,105.919972 35.3863708,105.919892 L92.6931165,105.918172 L92.6913958,163.224943 C93.5729321,166.751483 96.2177494,170.277865 99.7443148,170.277865 C103.27088,170.277865 105.915914,166.751113 105.915993,164.106183 L105.91774,105.917712 L164.106186,105.915965 C167.632752,105.915859 170.277865,102.389213 170.277865,99.7442834 C170.277865,97.0993543 168.514786,92.6912025 164.988221,92.6913084 L105.918326,92.6931447 Z" id="路径" fill="#FFFFFF" fill-rule="nonzero" transform="translate(99.746464, 99.746464) rotate(-315.000000) translate(-99.746464, -99.746464) "></path>
                <rect id="矩形备份" x="32.8502415" y="29.9516908" width="135.2657" height="135.2657"></rect>
            </g>
        </g>
    </g>
</svg>