<?xml version="1.0" encoding="UTF-8"?>
<svg width="128px" height="128px" viewBox="0 0 128 128" version="1.1" xmlns="http://www.w3.org/2000/svg" xmlns:xlink="http://www.w3.org/1999/xlink">
    <!-- Generator: Sketch 63 (92445) - https://sketch.com -->
    <title>编组 2</title>
    <desc>Created with Sketch.</desc>
    <g id="页面-1" stroke="none" stroke-width="1" fill="none" fill-rule="evenodd">
        <g id="后台图标" transform="translate(-434.000000, -335.000000)">
            <g id="编组-2" transform="translate(418.000000, 319.000000)">
                <g id="daochu" transform="translate(16.000000, 16.000000)" fill="#FFFFFF" fill-rule="nonzero">
                    <path d="M58.4925249,18.1576411 L35.7204318,40.9297342 C33.6422665,42.9990056 30.2823181,42.9990056 28.2041528,40.9297342 C26.1348813,38.8515689 26.1348813,35.4916204 28.2041528,33.4134551 L59.8639535,1.75365451 L59.8639535,1.77491701 C60.7371503,0.811493279 61.9314557,0.19922279 63.2234219,0.0526578488 L63.2978406,0.0526578488 C64.8708425,-0.0978514896 66.4292635,0.459283988 67.5503323,1.57292355 L67.7842193,1.80681061 L67.7735881,1.80681061 C67.7771318,1.80680708 67.7806756,1.80680708 67.7842193,1.80681061 L99.4014951,33.4134551 C101.251566,35.5234231 101.147213,38.7068937 99.1629339,40.691173 C97.1786546,42.6754523 93.995184,42.7798054 91.885216,40.9297342 L69.1237542,18.1789036 L69.1237542,85.070598 C69.1237542,87.994186 66.7317276,90.3862126 63.8081395,90.3862126 C60.8772473,90.3745589 58.5041786,88.0014902 58.4925249,85.070598 L58.4925249,18.1576411 L58.4925249,18.1576411 Z M111.648671,127.595515 L15.967608,127.595515 C7.1755814,127.595515 0.0207640258,120.440698 0.0207640258,111.648671 L0.0207640258,79.7549834 C0.0207640258,77.8556879 1.03353176,76.100532 2.67831763,75.1507936 C4.3231035,74.2010552 6.34965392,74.2010552 7.99443978,75.1507936 C9.63922565,76.100532 10.6523074,77.8556879 10.6519933,79.7549834 L10.6519933,111.648671 C10.6519933,114.584404 13.0318751,116.964286 15.967608,116.964286 L111.648671,116.964286 C114.584404,116.964286 116.964286,114.584404 116.964286,111.648671 L116.964286,79.7549834 C116.963972,77.8556879 117.977053,76.100532 119.621839,75.1507936 C121.266625,74.2010552 123.293176,74.2010552 124.937961,75.1507936 C126.582747,76.100532 127.595515,77.8556879 127.595515,79.7549834 L127.595515,111.648671 C127.595515,120.440698 120.440698,127.595515 111.648671,127.595515 Z" id="形状"></path>
                </g>
                <rect id="矩形备份-2" x="0" y="0" width="160" height="160"></rect>
            </g>
        </g>
    </g>
</svg>