<?xml version="1.0" encoding="UTF-8"?>
<svg width="112px" height="112px" viewBox="0 0 112 112" version="1.1" xmlns="http://www.w3.org/2000/svg" xmlns:xlink="http://www.w3.org/1999/xlink">
    <!-- Generator: Sketch 61 (89581) - https://sketch.com -->
    <title>编组 6</title>
    <desc>Created with Sketch.</desc>
    <g id="页面-1" stroke="none" stroke-width="1" fill="none" fill-rule="evenodd">
        <g id="-" transform="translate(-287.000000, -278.000000)">
            <g id="编组-6" transform="translate(279.000000, 270.000000)">
                <g id="编组-5备份" fill="#FFFFFF" fill-opacity="0">
                    <g id="编组备份-5">
                        <rect id="矩形" x="0" y="0" width="128" height="128"></rect>
                    </g>
                </g>
                <path d="M42.5634843,8 C47.5846782,8 52.5000972,9.48714209 56.6782034,12.2778669 C58.9928058,13.870789 59.5776784,17.0410772 57.9817227,19.3557921 C56.4199883,21.617617 53.3431849,22.236741 51.0316936,20.7433766 C48.5242077,19.0726751 45.5749563,18.1797676 42.5603733,18.1797676 L23.2751312,18.1797676 C20.4627649,18.1797676 18.1823838,20.4571484 18.1823838,23.2696515 L18.1823838,94.5435808 C18.1823838,97.3560838 20.4627649,99.6365758 23.2720202,99.6365758 L42.5603733,99.6365758 C47.5846782,99.6365758 52.5000972,101.123718 56.6782034,103.914443 L63.9984445,108.789655 L71.3186856,103.914443 C75.4967918,101.123718 80.4090997,99.6396869 85.4302936,99.6365758 L104.72798,99.6365758 C107.537235,99.6365758 109.814505,97.3560838 109.814505,94.5435808 L109.814505,23.2696515 C109.814505,20.4571484 107.537235,18.1797676 104.72798,18.1797676 L85.4365157,18.1797676 C83.3241299,18.1797676 80.1073304,19.0944534 77.3945168,20.6749307 C76.0816644,21.4371688 75.1328019,22.2149628 74.5728174,22.8620874 C74.4141552,23.0394244 74.2803811,23.2292062 74.1652732,23.437655 L74.1652732,84.360702 C74.1652732,87.173205 71.8880031,89.453697 69.0756368,89.453697 C66.2632705,89.453697 63.9828894,87.173205 63.9828894,84.360702 L63.9828894,23.2758738 C63.9828894,20.3202567 65.3984056,17.9059842 66.8730313,16.2072821 C68.4285437,14.4774683 70.2578262,13.0121044 72.2831032,11.873414 C76.1407739,9.62714501 81.1121913,8 85.4334046,8 L104.724869,8 C113.161968,8 120,14.8383647 120,23.2758738 L120,94.5435808 C120,102.98109 113.161968,109.819455 104.724869,109.819455 L85.4334046,109.819455 C82.4219327,109.819455 79.4726813,110.712362 76.9683064,112.383064 L66.8232549,119.143649 C65.1121913,120.28545 62.8846976,120.28545 61.1767451,119.143649 L51.0316936,112.383064 C48.5242077,110.709251 45.5780673,109.819455 42.5603733,109.816343 L23.2720202,109.816343 C14.8380323,109.816343 8.00311102,102.977979 8,94.5435808 L8,23.2696515 C8.00311102,14.8352535 14.8411433,8 23.2751312,8 L42.5634843,8 Z M46.5779506,62.9635895 C49.3280964,62.9635895 51.5524791,65.2845268 51.5524791,68.1468086 C51.5524791,71.0090905 49.3280964,73.3331389 46.5779506,73.3331389 L36.6226716,73.3331389 C33.8725258,73.3331389 31.6450321,71.0122016 31.6450321,68.1468086 C31.6450321,66.7716689 32.1707953,65.4525303 33.1041027,64.4787322 C34.0374101,63.5080453 35.3035971,62.9635895 36.6226716,62.9635895 L46.5779506,62.9635895 Z M46.5779506,42.2213796 C49.3280964,42.2213796 51.5524791,44.5423169 51.5524791,47.4077099 C51.5524791,50.2699917 49.3280964,52.590929 46.5779506,52.590929 L31.6450321,52.590929 C28.8948863,52.590929 26.6642815,50.2699917 26.6642815,47.4077099 C26.6642815,44.545428 28.8948863,42.2213796 31.6450321,42.2213796 L46.5779506,42.2213796 Z" id="形状结合" fill="currentColor"></path>
            </g>
        </g>
    </g>
</svg>