<?xml version="1.0" encoding="UTF-8"?>
<svg width="112px" height="112px" viewBox="0 0 112 112" version="1.1" xmlns="http://www.w3.org/2000/svg" xmlns:xlink="http://www.w3.org/1999/xlink">
    <!-- Generator: Sketch 61 (89581) - https://sketch.com -->
    <title>编组 11</title>
    <desc>Created with Sketch.</desc>
    <g id="页面-1" stroke="none" stroke-width="1" fill="none" fill-rule="evenodd">
        <g id="-" transform="translate(-475.000000, -278.000000)">
            <g id="编组-11" transform="translate(467.000000, 270.000000)">
                <path d="M13.5846068,9 C16.1153098,9 18.1661573,11.0539039 18.1661573,13.5846068 L18.1661573,13.5846068 L18.1661573,109.833843 L114.41845,109.833843 C116.949153,109.833843 119,111.88469 119,114.415393 C119,116.949153 116.946096,119 114.41845,119 L114.41845,119 L13.5846068,119 C11.0539039,119 9,116.946096 9,114.415393 L9,114.415393 L9,13.5846068 C9,11.0539039 11.0508475,9 13.5846068,9 Z M54.8338427,18.1661573 C57.3676021,18.1661573 59.4184496,20.2200611 59.4184496,22.7507641 L59.4184496,22.7507641 L59.4184496,96.0830786 C59.4184496,98.6137816 57.3676021,100.667685 54.8338427,100.667685 C52.3000834,100.667685 50.2492359,98.6137816 50.2492359,96.0830786 L50.2492359,96.0830786 L50.2492359,22.7507641 C50.2492359,20.2200611 52.3000834,18.1661573 54.8338427,18.1661573 Z M36.5015282,45.6676855 C39.0352876,45.6676855 41.086135,47.7185329 41.086135,50.2492359 L41.086135,50.2492359 L41.086135,96.0830786 C41.086135,98.6137816 39.0352876,100.667685 36.5015282,100.667685 C33.9677688,100.667685 31.9169214,98.6137816 31.9169214,96.0830786 L31.9169214,96.0830786 L31.9169214,50.2492359 C31.9169214,47.7185329 33.9677688,45.6676855 36.5015282,45.6676855 Z M73.1692137,59.4153932 C75.6999166,59.4153932 77.7507641,61.469297 77.7507641,64 L77.7507641,64 L77.7507641,96.0830786 C77.7507641,98.6137816 75.6999166,100.667685 73.1692137,100.667685 L73.1692137,100.667685 C70.6354543,100.667685 68.5846068,98.6137816 68.5846068,96.0830786 L68.5846068,96.0830786 L68.5846068,64 C68.5846068,61.4662406 70.6354543,59.4153932 73.1661573,59.4153932 L73.1661573,59.4153932 Z M91.5015282,41.0830786 C94.0322312,41.0830786 96.086135,43.1369825 96.086135,45.6676855 L96.086135,45.6676855 L96.086135,96.0830786 C96.086135,98.6137816 94.0322312,100.667685 91.5015282,100.667685 C88.9677688,100.667685 86.9199778,98.6137816 86.9199778,96.0830786 L86.9199778,96.0830786 L86.9199778,45.6676855 C86.9199778,43.1369825 88.9677688,41.0830786 91.5015282,41.0830786 Z" id="形状结合" stroke="currentColor" stroke-width="2" fill="currentColor"></path>
                <rect id="矩形" fill-opacity="0" fill="#FFFFFF" x="0" y="0" width="128" height="128"></rect>
            </g>
        </g>
    </g>
</svg>