<?xml version="1.0" encoding="UTF-8"?>
<svg width="110px" height="110px" viewBox="0 0 110 110" version="1.1" xmlns="http://www.w3.org/2000/svg" xmlns:xlink="http://www.w3.org/1999/xlink">
    <!-- Generator: Sketch 61 (89581) - https://sketch.com -->
    <title>编组 18备份</title>
    <desc>Created with Sketch.</desc>
    <g id="页面-1" stroke="none" stroke-width="1" fill="none" fill-rule="evenodd">
        <g id="-" transform="translate(-876.000000, -1510.000000)">
            <g id="编组-18备份" transform="translate(867.000000, 1501.000000)">
                <rect id="矩形" fill-opacity="0" fill="#FFFFFF" x="0" y="0" width="128" height="128"></rect>
                <path d="M18.8043654,71.7593436 C13.6617593,40.393419 40.3923106,13.6628677 71.7582352,18.8054738 C90.7550159,21.9191491 106.075887,37.236965 109.195674,56.2337456 C114.344391,87.6057815 87.6046731,114.3455 56.2326373,109.193727 C37.2389122,106.07394 21.9210963,90.7561242 18.8043654,71.7593436 Z M9.45111696,56.8509806 C4.91963462,92.8308892 35.1733141,123.081513 71.1501671,118.550031 C95.6653949,115.457745 115.459692,95.660392 118.548922,71.1512755 C123.080405,35.1713668 92.8236696,4.91463177 56.8468166,9.45222534 C32.3346444,12.5414557 12.5403473,32.3388084 9.45111696,56.8509806 Z M79.4033929,42.3062362 L63.9327961,57.7829443 L48.456088,42.3062362 C46.7479972,40.601201 43.9887736,40.5950898 42.2929053,42.2909581 C40.5939814,43.989882 40.6031483,46.7491056 42.3081834,48.4571964 L57.7818359,63.9308488 L42.3081834,79.4045013 C40.6031483,81.112592 40.5939814,83.8718156 42.2929053,85.5707395 C43.9887736,87.2666078 46.7510528,87.2604966 48.456088,85.5554614 L63.9297404,70.0787534 L79.4033929,85.5554614 C81.1114836,87.2604966 83.8707072,87.2666078 85.5696311,85.5707395 C87.2685551,83.8718156 87.2624438,81.112592 85.5512974,79.4045013 L70.077645,63.9308488 L85.554353,48.4571964 C87.2624438,46.7491056 87.2685551,43.989882 85.5696311,42.2909581 C83.8707072,40.5950898 81.1114836,40.601201 79.4033929,42.3062362 Z" id="Fill-36" fill="#818181"></path>
            </g>
        </g>
    </g>
</svg>