<?xml version="1.0" encoding="UTF-8"?>
<svg width="115px" height="115px" viewBox="0 0 115 115" version="1.1" xmlns="http://www.w3.org/2000/svg" xmlns:xlink="http://www.w3.org/1999/xlink">
    <!-- Generator: Sketch 61 (89581) - https://sketch.com -->
    <title>编组 15</title>
    <desc>Created with Sketch.</desc>
    <g id="页面-1" stroke="none" stroke-width="1" fill="none" fill-rule="evenodd">
        <g id="-" transform="translate(-474.000000, -472.000000)">
            <g id="编组-15" transform="translate(467.000000, 465.000000)">
                <path d="M45.3333333,26.1682643 L54.9190631,26.1682643 L54.9190631,16.5857298 L45.3333333,16.5857298 L45.3333333,26.1682643 Z M69.2912673,88.4563363 L59.7087327,88.4563363 C57.0598761,88.4563363 54.9190631,90.6035398 54.9190631,93.2492012 C54.9190631,95.8948626 57.0598761,98.0420661 59.7087327,98.0420661 L69.2912673,98.0420661 C71.9401239,98.0420661 74.0841321,95.8948626 74.0841321,93.2492012 C74.0841321,90.6035398 71.9401239,88.4563363 69.2912673,88.4563363 L69.2912673,88.4563363 Z M35.7507988,35.7507988 C38.3964602,35.7507988 40.5436637,33.6035953 40.5436637,30.9579339 L40.5436637,11.7928649 C40.5436637,9.14720347 38.3964602,7 35.7507988,7 C33.1019422,7 30.9579339,9.14720347 30.9579339,11.7928649 L30.9579339,30.9579339 C30.9579339,33.6035953 33.1019422,35.7507988 35.7507988,35.7507988 L35.7507988,35.7507988 Z M30.9579339,59.7087327 L40.5436637,59.7087327 C43.1861299,59.7087327 45.3333333,57.5647245 45.3333333,54.9158679 C45.3333333,52.2702064 43.1861299,50.1261982 40.5436637,50.1261982 L30.9579339,50.1261982 C28.3122725,50.1261982 26.165069,52.2702064 26.165069,54.9158679 C26.165069,57.5647245 28.3122725,59.7087327 30.9579339,59.7087327 L30.9579339,59.7087327 Z M69.2912673,69.2912673 L59.7087327,69.2912673 C57.0598761,69.2912673 54.9190631,71.4384707 54.9190631,74.0841321 C54.9190631,76.7297936 57.0598761,78.8738018 59.7087327,78.8738018 L69.2912673,78.8738018 C71.9401239,78.8738018 74.0841321,76.7297936 74.0841321,74.0841321 C74.0841321,71.4384707 71.9401239,69.2912673 69.2912673,69.2912673 L69.2912673,69.2912673 Z M112.417465,16.5857298 L102.831736,16.5857298 L102.831736,26.1682643 L112.417465,26.1682643 L112.417465,112.417465 L16.5825345,112.417465 L16.5825345,26.1682643 L26.165069,26.1682643 L26.165069,16.5857298 L16.5825345,16.5857298 C11.2912117,16.5857298 7,20.8737462 7,26.1682643 L7,112.417465 C7,117.708788 11.2912117,122 16.5825345,122 L112.417465,122 C117.708788,122 122,117.708788 122,112.417465 L122,26.1682643 C122,20.8737462 117.708788,16.5857298 112.417465,16.5857298 L112.417465,16.5857298 Z M40.5436637,69.2912673 L30.9579339,69.2912673 C28.3122725,69.2912673 26.165069,71.4384707 26.165069,74.0841321 C26.165069,76.7297936 28.3122725,78.8738018 30.9579339,78.8738018 L40.5436637,78.8738018 C43.1861299,78.8738018 45.3333333,76.7297936 45.3333333,74.0841321 C45.3333333,71.4384707 43.1861299,69.2912673 40.5436637,69.2912673 L40.5436637,69.2912673 Z M40.5436637,88.4563363 L30.9579339,88.4563363 C28.3122725,88.4563363 26.165069,90.6035398 26.165069,93.2492012 C26.165069,95.8948626 28.3122725,98.0420661 30.9579339,98.0420661 L40.5436637,98.0420661 C43.1861299,98.0420661 45.3333333,95.8948626 45.3333333,93.2492012 C45.3333333,90.6035398 43.1861299,88.4563363 40.5436637,88.4563363 L40.5436637,88.4563363 Z M88.4563363,59.7087327 L98.0388708,59.7087327 C100.687727,59.7087327 102.831736,57.5647245 102.831736,54.9158679 C102.831736,52.2702064 100.687727,50.1261982 98.0388708,50.1261982 L88.4563363,50.1261982 C85.8138701,50.1261982 83.6666667,52.2702064 83.6666667,54.9158679 C83.6666667,57.5647245 85.8138701,59.7087327 88.4563363,59.7087327 L88.4563363,59.7087327 Z M93.2492012,35.7507988 C95.8980578,35.7507988 98.0420661,33.6035953 98.0420661,30.9579339 L98.0420661,11.7928649 C98.0420661,9.14720347 95.8980578,7 93.2492012,7 C90.606735,7 88.459528,9.14720347 88.459528,11.7928649 L88.459528,30.9579339 C88.4563363,33.6035953 90.6035398,35.7507988 93.2492012,35.7507988 L93.2492012,35.7507988 Z M98.0420661,69.2912673 L88.4595315,69.2912673 C85.8138701,69.2912673 83.6666667,71.4384707 83.6666667,74.0841321 C83.6666667,76.7297936 85.8138701,78.8738018 88.4595315,78.8738018 L98.0420661,78.8738018 C100.687727,78.8738018 102.831736,76.7297936 102.831736,74.0841321 C102.831736,71.4384707 100.687727,69.2912673 98.0420661,69.2912673 L98.0420661,69.2912673 Z M59.7087327,59.7087327 L69.2912673,59.7087327 C71.9401239,59.7087327 74.0841321,57.5647245 74.0841321,54.9158679 C74.0841321,52.2702064 71.9401239,50.1261982 69.2912673,50.1261982 L59.7087327,50.1261982 C57.0598761,50.1261982 54.9190631,52.2702064 54.9190631,54.9158679 C54.9190631,57.5647245 57.0598761,59.7087327 59.7087327,59.7087327 L59.7087327,59.7087327 Z M98.0420661,88.4563363 L88.4595315,88.4563363 C85.8138701,88.4563363 83.6666667,90.6035398 83.6666667,93.2492012 C83.6666667,95.8948626 85.8138701,98.0420661 88.4595315,98.0420661 L98.0420661,98.0420661 C100.687727,98.0420661 102.831736,95.8948626 102.831736,93.2492012 C102.831736,90.6035398 100.687727,88.4563363 98.0420661,88.4563363 L98.0420661,88.4563363 Z M74.0841321,26.1682643 L83.6666667,26.1682643 L83.6666667,16.5857298 L74.0841321,16.5857298 L74.0841321,26.1682643 Z M64.5015976,35.7507988 C67.147259,35.7507988 69.2912673,33.6035953 69.2912673,30.9579339 L69.2912673,11.7928649 C69.2912673,9.14720347 67.147259,7 64.5015976,7 C61.852741,7 59.7087327,9.14720347 59.7087327,11.7928649 L59.7087327,30.9579339 C59.7087327,33.6035953 61.852741,35.7507988 64.5015976,35.7507988 L64.5015976,35.7507988 Z" id="Fill-27备份" fill="currentColor"></path>
                <rect id="矩形" fill-opacity="0" fill="#FFFFFF" x="0" y="0" width="128" height="128"></rect>
            </g>
        </g>
    </g>
</svg>