<?xml version="1.0" encoding="UTF-8"?>
<svg width="115px" height="115px" viewBox="0 0 115 115" version="1.1" xmlns="http://www.w3.org/2000/svg" xmlns:xlink="http://www.w3.org/1999/xlink">
    <!-- Generator: Sketch 61 (89581) - https://sketch.com -->
    <title>编组 5</title>
    <desc>Created with Sketch.</desc>
    <g id="页面-1" stroke="none" stroke-width="1" fill="none" fill-rule="evenodd">
        <g id="-" transform="translate(-286.000000, -62.000000)">
            <g id="编组-5" transform="translate(279.000000, 55.000000)">
                <g id="编组备份-5" fill="#FFFFFF" fill-opacity="0">
                    <rect id="矩形" x="0" y="0" width="128" height="128"></rect>
                </g>
                <path d="M107.001215,107.000798 L93.0434354,102.348076 C74.4043234,116.446751 47.7788453,115.051253 30.7842669,98.0562031 C12.205827,79.4772473 12.205827,49.3574964 30.7842669,30.781734 C49.3595135,12.2027782 79.4784281,12.2027782 98.056868,30.781734 C115.048253,47.7767843 116.446905,74.4030018 102.348622,93.0458247 L107.001215,107.000798 Z M114.633128,92.5412741 C126.892088,70.647613 123.765878,42.4566502 105.145925,23.8393741 C82.6940501,1.3868753 46.2907819,1.3868753 23.8389065,23.8393741 C1.38703116,46.2918729 1.38703116,82.696152 23.8389065,105.148651 C42.4588589,123.765927 70.6458456,126.892224 92.5420921,114.63931 L122,122 L114.633128,92.5412741 Z M89.5052932,57.0087817 C85.3604298,57.0087817 82.004304,60.3650008 82.004304,64.5035925 C82.004304,68.648571 85.3604298,72.00479 89.5052932,72.00479 C93.64377,72.00479 97.0030891,68.6453776 97.0030891,64.5035925 C97.0030891,60.3650008 93.64377,57.0087817 89.5052932,57.0087817 L89.5052932,57.0087817 Z M39.5082782,57.0087817 C35.3666081,57.0087817 32.0104823,60.3650008 32.0104823,64.5035925 C32.0104823,68.648571 35.3666081,72.00479 39.5082782,72.00479 C43.6499483,72.00479 47.0060764,68.6453776 47.0060764,64.5035925 C47.0092674,60.3650008 43.6499483,57.0087817 39.5082782,57.0087817 L39.5082782,57.0087817 Z M64.5051891,57.0087817 C60.3667123,57.0087817 57.0073931,60.3650008 57.0073931,64.5035925 C57.0073931,68.648571 60.3667123,72.00479 64.5051891,72.00479 C68.6468591,72.00479 72.0061783,68.6453776 72.0061783,64.5035925 C72.0061783,60.3650008 68.6468591,57.0087817 64.5051891,57.0087817 L64.5051891,57.0087817 Z" id="Fill-46备份" fill="currentColor"></path>
            </g>
        </g>
    </g>
</svg>