<?xml version="1.0" encoding="UTF-8"?>
<svg width="110px" height="100px" viewBox="0 0 110 100" version="1.1" xmlns="http://www.w3.org/2000/svg" xmlns:xlink="http://www.w3.org/1999/xlink">
    <!-- Generator: Sketch 61 (89581) - https://sketch.com -->
    <title>编组 25</title>
    <desc>Created with Sketch.</desc>
    <g id="页面-1" stroke="none" stroke-width="1" fill="none" fill-rule="evenodd">
        <g id="-" transform="translate(-664.000000, -675.000000)" fill="#FFFFFF">
            <g id="编组-25" transform="translate(655.000000, 661.000000)">
                <rect id="矩形" fill-opacity="0" x="0" y="0" width="128" height="128"></rect>
                <path d="M113.4725,72.3791389 C116.521944,72.3791389 119,74.8571944 119,77.9158056 L119,77.9158056 L119,108.046639 C119,111.096083 116.534167,113.571083 113.4725,113.571083 L113.4725,113.571083 L14.5366667,113.571083 C11.4780556,113.571083 9,111.108306 9,108.046639 L9,108.046639 L9,77.9158056 C9,74.8694167 11.4627778,72.3913611 14.5244444,72.3913611 C17.5708333,72.3913611 20.0488889,74.8571944 20.0488889,77.9158056 L20.0488889,77.9158056 L20.0488889,102.494694 L107.948056,102.494694 L107.948056,77.9066389 C107.948056,74.8571944 110.413889,72.3791389 113.4725,72.3791389 Z M63.9975556,14 C67.047,14 69.522,16.4627778 69.522,19.5244444 L69.522,19.5244444 L69.522,67.4233333 L82.1108889,54.5716667 C84.2436667,52.3838889 87.7422778,52.3563889 89.9300556,54.4891667 C92.1147778,56.625 92.1422778,60.1236111 90.0095,62.3083333 L90.0095,62.3083333 L67.9331111,84.8461111 C66.9003333,85.9094444 65.4703333,86.5022222 63.9853333,86.5022222 C62.5003333,86.5022222 61.0825556,85.9094444 60.0375556,84.8461111 L60.0375556,84.8461111 L37.9886667,62.3083333 C35.8558889,60.1358333 35.8833889,56.625 38.0681111,54.4891667 C40.2406111,52.3563889 43.7514444,52.3838889 45.8872778,54.5716667 L45.8872778,54.5716667 L58.4731111,67.4233333 L58.4731111,19.5244444 C58.4731111,16.4780556 60.9511667,14 63.9975556,14 Z" id="形状结合"></path>
            </g>
        </g>
    </g>
</svg>