<?xml version="1.0" encoding="UTF-8"?>
<svg width="115px" height="115px" viewBox="0 0 115 115" version="1.1" xmlns="http://www.w3.org/2000/svg" xmlns:xlink="http://www.w3.org/1999/xlink">
    <!-- Generator: Sketch 61 (89581) - https://sketch.com -->
    <title>编组 3备份 4</title>
    <desc>Created with Sketch.</desc>
    <g id="页面-1" stroke="none" stroke-width="1" fill="none" fill-rule="evenodd">
        <g id="-" transform="translate(-1250.000000, -1508.000000)">
            <g id="编组-3备份-4" transform="translate(1243.000000, 1501.000000)">
                <g id="编组备份-3" fill="#F3F3F3" opacity="0">
                    <g id="编组-2备份">
                        <g id="编组备份">
                            <rect id="矩形" x="0" y="0" width="128" height="128"></rect>
                        </g>
                    </g>
                </g>
                <path d="M112.415069,51.0953909 L112.415069,112.424253 L16.5849314,112.424253 L16.5849314,16.6540016 L77.9521427,16.6540016 L77.9521427,7.07825411 L16.5849314,7.07825411 C11.289089,7.07825411 7,11.3646628 7,16.6540016 L7,112.424253 C7,117.713591 11.292285,122 16.5849314,122 L112.415069,122 C117.707715,122 122,117.713591 122,112.424253 L122,51.0953909 L112.415069,51.0953909 Z M40.5424657,74.1148745 L54.9150686,88.4816898 L40.5424657,88.4816898 L40.5424657,74.1148745 Z M102.532905,16.4336125 L112.514146,26.4469441 L59.7059363,78.9059423 L50.124201,69.3270008 L102.532905,16.4336125 Z M31.0214552,98.1245122 L54.9182647,98.0574373 L119.171502,33.1193045 C122.850147,29.4333764 122.850147,23.4605119 119.171502,19.7713897 L109.187066,9.76444611 C105.511617,6.07851796 99.5541938,6.07851796 95.8787449,9.76444611 L30.9607304,74.1148745 L31.0214552,98.1245122 Z" id="Fill-26备份" fill="#4481E6"></path>
            </g>
        </g>
    </g>
</svg>