<?xml version="1.0" encoding="UTF-8"?>
<svg width="115px" height="115px" viewBox="0 0 115 115" version="1.1" xmlns="http://www.w3.org/2000/svg" xmlns:xlink="http://www.w3.org/1999/xlink">
    <!-- Generator: Sketch 61 (89581) - https://sketch.com -->
    <title>编组 4</title>
    <desc>Created with Sketch.</desc>
    <g id="页面-1" stroke="none" stroke-width="1" fill="none" fill-rule="evenodd">
        <g id="-" transform="translate(-97.000000, -874.000000)">
            <g id="编组-4" transform="translate(91.000000, 867.000000)">
                <g id="编组备份-4" fill="#F3F3F3" opacity="0">
                    <g id="编组-2备份">
                        <g id="编组备份">
                            <rect id="矩形" x="0" y="0" width="128" height="128"></rect>
                        </g>
                    </g>
                </g>
                <path d="M105.168333,84.51 C108.14875,84.1809722 110.429583,81.635 110.429583,78.5491667 L110.429583,70.9336111 C110.429583,67.6145833 107.781389,64.9088889 104.529444,64.9088889 C101.271111,64.9088889 98.6197222,67.6145833 98.6197222,70.9336111 L98.6197222,78.5491667 C98.6229167,81.5168056 100.756806,83.9988889 103.539167,84.48125 L105.168333,84.51 Z M22.47375,64.9088889 C19.2154167,64.9088889 16.5672222,67.6145833 16.5672222,70.9336111 L16.5672222,78.5491667 C16.5672222,81.8681944 19.2154167,84.5738889 22.47375,84.5738889 C25.7288889,84.5738889 28.3770833,81.8681944 28.3770833,78.5491667 L28.3770833,70.9336111 C28.3770833,67.6145833 25.7288889,64.9088889 22.47375,64.9088889 L22.47375,64.9088889 Z M69.0934722,122 C63.0975,122 58.2163889,117.019861 58.2163889,110.899306 C58.2163889,104.781944 63.0975,99.7986111 69.0934722,99.7986111 C73.2718056,99.805 77.0156944,102.242361 78.8141667,105.992639 C86.1645833,103.957778 92.7706944,99.6804167 97.7029167,93.7706944 C91.8506944,91.0745833 88.0556944,85.2063889 88.0556944,78.5491667 L88.0556944,70.9336111 C88.0652778,62.3405556 94.4988889,55.1818056 102.702222,54.2426389 C100.603472,33.6768056 84.4747222,17.7844444 65.3655556,17.7844444 L61.6344444,17.7844444 C42.5252778,17.7844444 26.3997222,33.6768056 24.3009722,54.2426389 C32.5011111,55.1818056 38.9347222,62.3405556 38.9475,70.9304167 L38.9475,78.5491667 C38.9475,87.8130556 31.5555556,95.3583333 22.47375,95.3583333 C13.38875,95.3583333 6,87.8130556 6,78.5491667 L6,70.9336111 C6,65.2986111 8.86222222,60.0022222 13.5293056,56.8972222 C14.4652778,29.3068056 35.8808333,7 61.6344444,7 L65.3655556,7 C91.1191667,7 112.531528,29.3068056 113.473889,56.9004167 C118.137778,60.0022222 121,65.2986111 121,70.9336111 L121,78.5491667 C121,85.4395833 116.8025,91.6336111 110.493472,94.1476389 C103.369861,106.286528 91.56,114.691111 77.9356944,117.320139 C75.9263889,120.2175 72.6009722,121.993611 69.0966667,122 L69.0934722,122 Z" id="Fill-59备份" fill="currentColor"></path>
            </g>
        </g>
    </g>
</svg>