<?xml version="1.0" encoding="UTF-8"?>
<svg width="110px" height="110px" viewBox="0 0 110 110" version="1.1" xmlns="http://www.w3.org/2000/svg" xmlns:xlink="http://www.w3.org/1999/xlink">
    <!-- Generator: Sketch 61 (89581) - https://sketch.com -->
    <title>编组 24</title>
    <desc>Created with Sketch.</desc>
    <g id="页面-1" stroke="none" stroke-width="1" fill="none" fill-rule="evenodd">
        <g id="-" transform="translate(-664.000000, -474.000000)" fill="#FFFFFF">
            <g id="编组-24" transform="translate(655.000000, 465.000000)">
                <rect id="矩形" fill-opacity="0" x="0" y="0" width="128" height="128"></rect>
                <path d="M119,14.0135227 C119,12.8369423 118.466749,11.8016745 117.69139,10.9476553 C117.596386,10.8278468 117.179592,10.4069813 117.06007,10.3148209 C116.20503,9.53760201 115.17224,9 113.998475,9 L113.272151,9 L112.919715,9 L112.653089,9 L79.6221846,9 C76.4594556,9 73.8973999,11.2487124 73.8973999,14.0135227 C73.8973999,16.7844771 76.4625202,19.0301175 79.6221846,19.0301175 L100.235087,19.0301175 L55.4665351,63.9091331 C53.0944883,66.293014 53.0944883,70.1483884 55.4665351,72.5291973 C57.8385819,74.9069342 61.6908594,74.9069342 64.0629062,72.5291973 L108.99695,27.4873651 L108.99695,48.4722755 C108.99695,51.6425913 111.237216,54.2138649 113.998475,54.2138649 C116.759734,54.2138649 119,51.6425913 119,48.4722755 L119,14.7415894 L119,14.0135227 Z M98.7181408,109.033078 L18.9663132,109.033078 L18.9663132,29.2794223 L63.8269066,29.2794223 L63.8269066,19.3125 L18.9663132,19.3125 C13.462301,19.3125 9,23.7720276 9,29.2794223 L9,109.033078 C9,114.537426 13.462301,119 18.9663132,119 L98.7181408,119 C104.222153,119 108.6875,114.537426 108.6875,109.033078 L108.6875,64.1697427 L98.7181408,64.1697427 L98.7181408,109.033078 Z" id="Fill-15备份"></path>
            </g>
        </g>
    </g>
</svg>