<?xml version="1.0" encoding="UTF-8"?>
<svg width="122px" height="116px" viewBox="0 0 122 116" version="1.1" xmlns="http://www.w3.org/2000/svg" xmlns:xlink="http://www.w3.org/1999/xlink">
    <!-- Generator: Sketch 61 (89581) - https://sketch.com -->
    <title>编组 10</title>
    <desc>Created with Sketch.</desc>
    <g id="页面-1" stroke="none" stroke-width="1" fill="none" fill-rule="evenodd">
        <g id="-" transform="translate(-470.000000, -61.000000)">
            <g id="编组-10" transform="translate(467.000000, 55.000000)">
                <g id="编组-5备份-2" fill="#FFFFFF" fill-opacity="0">
                    <g id="编组备份-5">
                        <rect id="矩形" x="0" y="0" width="128" height="128"></rect>
                    </g>
                </g>
                <path d="M55.16,69.7797025 C55.16,67.376733 65.9566667,61.5205569 85.9833333,61.5205569 C106.01,61.5205569 116.806705,67.3937271 116.806705,69.7797025 C116.823333,72.162279 105.993333,78.0354492 85.9833333,78.0354492 C65.9566667,78.0354492 55.16,72.162279 55.16,69.7797025 Z M86,95.8249009 C65.9733333,95.8249009 55.1433333,89.9687248 55.1433333,87.5691542 L55.1433333,79.4119734 C62.53,83.466772 74.5233333,85.3871083 85.9666667,85.3871083 C97.41,85.3871083 109.423333,83.466772 116.79,79.4119734 L116.823333,87.572553 C116.823333,89.9687248 106.026667,95.8249009 86,95.8249009 Z M116.823333,105.389195 C116.823333,107.788766 106.026667,113.648341 86,113.648341 C65.9733333,113.648341 55.1766667,107.771772 55.1766667,105.389195 L55.1766667,97.2286157 C62.53,101.286813 74.54,103.203751 85.9833333,103.203751 C97.43,103.203751 109.436667,101.286813 116.806667,97.2286157 L116.823333,105.389195 Z M42.0033333,66.499836 C21.9766667,66.499836 11.18,60.64366 11.18,58.2474881 L11.18,50.0869086 C18.5633333,54.1417072 30.56,56.0586446 42.0033333,56.0586446 C53.4633333,56.0586446 65.46,54.1417072 72.83,50.0869086 L72.83,55.0186041 C61.4,56.558272 51.4733333,60.2120092 48.71,66.2687159 C46.6066667,66.4182642 44.38,66.499836 42.0033333,66.499836 Z M11.1933333,85.6964014 C18.58,89.7512 30.5766667,91.6749352 42.02,91.6749352 C43.99,91.6749352 45.96,91.6069586 47.95,91.4913986 L47.95,101.93259 C45.9766667,102.051549 43.9966667,102.112801 42.02,102.112801 C22.0266667,102.129722 11.1933333,96.2565517 11.1933333,93.8535822 L11.1933333,85.6964014 Z M42.02,73.8650905 C43.99,73.8650905 45.96,73.8005128 47.95,73.6849527 L47.95,84.1261441 C45.9766667,84.2485018 43.9966667,84.3096807 42.02,84.3096807 C21.9933333,84.3096807 11.1933333,78.4331117 11.1933333,76.0505352 L11.1933333,67.8967532 C18.58,71.9447542 30.5766667,73.8650905 42.02,73.8650905 Z M11.1933333,32.2600698 C18.58,36.3182672 30.5766667,38.2352047 42.02,38.2352047 C53.48,38.2352047 65.4766667,36.3182672 72.8433333,32.2634686 L72.8433333,40.4240482 C72.8433333,42.82022 62.0433333,48.6763961 42.02,48.6763961 C21.9933333,48.6763961 11.1933333,42.8236189 11.1933333,40.427447 L11.1933333,32.2668674 L11.1933333,32.2600698 Z M72.8433333,22.6210012 C72.8433333,25.0001789 62.0433333,30.8767479 42.02,30.8767479 C21.9933333,30.8767479 11.2066667,25.0205718 11.2066667,22.6210012 C11.2066667,20.2180317 22.0266667,14.3652545 42.02,14.3652545 C62.0433333,14.3652545 72.8433333,20.2350258 72.8433333,22.6210012 Z M124,69.7321189 C123.936667,59.0258191 104.246667,54.145106 85.9833333,54.145106 C84.0133333,54.145106 82.04,54.2096837 80.0533333,54.3252437 L80.0533333,22.6210012 C80.0533333,11.8773143 60.35,7 42.0333333,7 C23.7233333,7 4,11.8773143 4,22.6210012 L4,93.9079634 C4.06666667,104.597269 23.74,109.481381 42.02,109.481381 C44.2966667,109.481381 46.6066667,109.39641 48.8866667,109.250261 C53.01,117.288483 70.0166667,121 85.9666667,121 C104.28,121 123.983333,116.115888 123.983333,105.3756 L123.983333,69.7321189 L124,69.7321189 Z" id="Fill-64备份" stroke="currentColor" stroke-width="2" fill="currentColor"></path>
            </g>
        </g>
    </g>
</svg>