<?xml version="1.0" encoding="UTF-8"?>
<svg width="122px" height="122px" viewBox="0 0 122 122" version="1.1" xmlns="http://www.w3.org/2000/svg" xmlns:xlink="http://www.w3.org/1999/xlink">
    <!-- Generator: Sketch 61 (89581) - https://sketch.com -->
    <title>编组 2</title>
    <desc>Created with Sketch.</desc>
    <g id="页面-1" stroke="none" stroke-width="1" fill="none" fill-rule="evenodd">
        <g id="-" transform="translate(-94.000000, -273.000000)">
            <g id="编组-2" transform="translate(91.000000, 270.000000)">
                <g id="编组备份" fill="#F3F3F3" opacity="0">
                    <rect id="矩形" x="0" y="0" width="128" height="128"></rect>
                </g>
                <path d="M74.53,4 L75.5433333,6.85285786 L78.42,14.9515081 C79.1166667,16.9045159 80.6066667,18.4742543 82.5233333,19.2707882 C84.4433333,20.0639893 86.6133333,20.0106649 88.49,19.1208132 L88.49,19.1208132 L96.2566667,15.4314281 L98.99,14.1283119 L101.13,16.2712881 L111.736667,26.8761873 L113.873333,29.0158307 L112.576667,31.7453758 L108.88,39.514081 C107.99,41.3937677 107.933333,43.5634061 108.73,45.4864189 C109.526667,47.3994334 111.093333,48.8858524 113.043333,49.5857357 L113.043333,49.5857357 L121.153333,52.4652558 L124,53.4784203 L124,74.518247 L121.16,75.5347442 L113.05,78.4375937 C111.09,79.1341443 109.516667,80.6272288 108.723333,82.5469088 C107.93,84.4632561 107.983333,86.6228962 108.87,88.4959173 L108.87,88.4959173 L112.563333,96.2646226 L113.863333,98.9941676 L111.726667,101.133811 L101.116667,111.742043 L98.98,113.881686 L96.2466667,112.57857 L88.42,108.862523 C86.5766667,107.98267 84.45,107.929345 82.5633333,108.709215 C80.62,109.522413 79.1133333,111.115481 78.4033333,113.098484 L78.4033333,113.098484 L75.54,121.153808 L74.5266667,124 L53.4066667,124 L52.4266667,121.077154 L49.4933333,112.305282 C48.2133333,107.866022 43.8033333,106.679553 39.71,108.295951 L39.71,108.295951 L31.9433333,112.475254 L29.1366667,113.98167 L26.8833333,111.728712 L16.2666667,101.123813 L14.1266667,98.9841693 L15.4266667,96.2546242 L19.12,88.485919 C20.0133333,86.6028995 20.0666667,84.4365939 19.27,82.5169138 C18.4766667,80.6038994 16.9066667,79.1141476 14.9533333,78.4209298 L14.9533333,78.4209298 L6.84666667,75.5314114 L4,74.518247 L4,53.4750875 L6.85333333,52.4652558 L15.2533333,49.4990835 C20.08,48.1659723 21.2566667,43.8100317 19.1266667,39.5907349 L19.1266667,39.5907349 L15.4333333,31.8853524 L14.1133333,29.1324779 L16.2866667,26.9895017 L26.9,16.497917 L29.0966667,14.3282786 L31.8466667,15.7247125 L39.2666667,19.4974171 C43.8066667,21.3071155 48.2166667,20.1173138 49.5466667,15.5180803 L49.5466667,15.5180803 L52.4266667,6.92284619 L53.41,4 L74.53,4 Z M68.627,13 L59.427,13 L57.7266667,18.0709882 C54.8262921,28.1184522 45.0139014,30.8607969 36.0486281,27.4191722 L35.7433333,27.2994501 L31.183,24.992 L24.727,31.448 L26.8166667,35.808032 C31.0595238,44.2132245 28.3380047,54.5645968 18.1651876,57.5734905 L17.8233333,57.6710548 L12.569,59.532 L12.569,68.473 L17.8266667,70.3456091 C21.9387255,71.8109531 25.2657497,74.8931989 27.0366506,78.8731899 L27.1933333,79.2374604 C28.9133333,83.3967672 28.7933333,88.095984 26.86,92.1653058 L26.86,92.1653058 L24.758,96.583 L31.284,103.108 L36.0833333,100.543909 C44.6778788,97.0941434 54.5658527,99.6902293 57.5756202,109.420678 L57.6766667,109.75904 L59.433,115 L68.63,115 L70.33,110.218964 C71.8085294,106.081712 74.9105104,102.738783 78.9105709,100.951995 L79.2766667,100.793868 C83.4066667,99.0774871 88.07,99.2007999 92.11,101.12048 L92.11,101.12048 L96.579,103.244 L103.234,96.589 L101.133333,92.1686386 C100.98,91.84647 100.837037,91.5183766 100.705432,91.1863331 L100.516667,90.6855524 C97.57,82.410265 101.886667,73.3151141 110.163333,70.3656057 L110.163333,70.3656057 L115.43,68.479 L115.43,59.528 L110.163333,57.6577237 C106.05451,56.1891449 102.737001,53.1005248 100.966657,49.1262561 L100.81,48.7625396 C99.0866667,44.6032328 99.2066667,39.904016 101.14,35.8346942 L101.14,35.8346942 L103.241,31.416 L96.587,24.763 L92.1633333,26.866189 C88.2205208,28.7323363 83.6927246,28.9001241 79.6315272,27.3453124 L79.24,27.1894684 C75.0866667,25.4664223 71.8533333,22.0636561 70.3433333,17.8310282 L70.3433333,17.8310282 L68.627,13 Z M64,38.2809532 C78.2,38.2809532 89.7166667,49.7923679 89.7166667,63.9900017 C89.7166667,78.1976337 78.2,89.7023829 64,89.7023829 C49.7966667,89.7023829 38.2866667,78.1976337 38.2866667,63.9900017 C38.2866667,49.7890352 49.7966667,38.2809532 64,38.2809532 Z M64,46.8528579 C54.53,46.8528579 46.8566667,54.5215797 46.8566667,63.9900017 C46.8566667,73.4650892 54.53,81.133811 64,81.133811 C73.4666667,81.133811 81.1433333,73.4617564 81.1433333,63.9900017 C81.1433333,54.5249125 73.4666667,46.8528579 64,46.8528579 Z M115.5,68.454 L115.43,68.479 L115.43,71.4954174 L115.5,71.396 L115.5,68.454 Z M12.5,68.448 L12.5,71.397 L12.57,71.4954174 L12.569,68.473 L12.5,68.448 Z M12.57,56.5045826 L12.5,56.602 L12.5,59.556 L12.569,59.532 L12.57,56.5045826 Z M115.43,56.5045826 L115.43,59.528 L115.5,59.553 L115.5,56.603 L115.43,56.5045826 Z" id="形状结合" stroke="currentColor" fill="currentColor"></path>
            </g>
        </g>
    </g>
</svg>