<?xml version="1.0" encoding="UTF-8"?>
<svg width="120px" height="120px" viewBox="0 0 120 120" version="1.1" xmlns="http://www.w3.org/2000/svg" xmlns:xlink="http://www.w3.org/1999/xlink">
    <!-- Generator: Sketch 61 (89581) - https://sketch.com -->
    <title>编组</title>
    <desc>Created with Sketch.</desc>
    <g id="页面-1" stroke="none" stroke-width="1" fill="none" fill-rule="evenodd">
        <g id="-" transform="translate(-95.000000, -469.000000)">
            <g id="编组" transform="translate(91.000000, 465.000000)">
                <g id="编组-2备份" fill="#F3F3F3" opacity="0">
                    <g id="编组备份">
                        <rect id="矩形" x="0" y="0" width="128" height="128"></rect>
                    </g>
                </g>
                <path d="M82.23,70.6666667 C105.3,70.6666667 124,87.29 124,107.796667 C124,116.743333 115.84,124 105.77,124 L105.77,124 L22.23,124 C12.16,124 4,116.743333 4,107.796667 C4,87.29 22.7033333,70.6666667 45.77,70.6666667 L45.77,70.6666667 Z M82.23,79.5566667 L45.77,79.5566667 C28.2533333,79.5566667 14,92.2233333 14,107.796667 C14,111.83 17.6933333,115.11 22.23,115.11 L22.23,115.11 L105.77,115.11 C110.31,115.11 114,111.83 114,107.796667 C114,92.2233333 99.7466667,79.5566667 82.23,79.5566667 L82.23,79.5566667 Z M64.001,4 C80.571,4 94.001,17.43 94.001,34 C94.001,50.57 80.571,64 64.001,64 C47.431,64 34.001,50.57 34.001,34 C34.001,17.43 47.431,4 64.001,4 Z M64.001,14 C52.971,14 44.001,22.97 44.001,34 C44.001,45.03 52.971,54 64.001,54 C75.031,54 84.001,45.03 84.001,34 C84.001,22.97 75.031,14 64.001,14 Z" id="形状结合备份" fill="currentColor"></path>
            </g>
        </g>
    </g>
</svg>