<?xml version="1.0" encoding="UTF-8"?>
<svg width="122px" height="122px" viewBox="0 0 122 122" version="1.1" xmlns="http://www.w3.org/2000/svg" xmlns:xlink="http://www.w3.org/1999/xlink">
    <!-- Generator: Sketch 61 (89581) - https://sketch.com -->
    <title>编组备份 2</title>
    <desc>Created with Sketch.</desc>
    <g id="页面-1" stroke="none" stroke-width="1" fill="currentColor" fill-rule="evenodd">
        <g id="-" transform="translate(-94.000000, -58.000000)">
            <g id="编组备份-2" transform="translate(91.000000, 55.000000)">
                <rect id="矩形" fill-opacity="0" fill="#FFFFFF" x="0" y="0" width="128" height="128"></rect>
                <path d="M78.5911888,115.764706 L97.3646756,115.764706 C99.8320481,115.764706 101.877017,113.713007 101.877017,111.231492 L101.877017,68.9181379 C101.877017,66.439981 103.744309,64.5662526 106.211681,64.5662526 L114.334567,64.5662526 C114.874304,64.5662526 115.477738,64.2035955 115.658768,63.5991669 C115.836446,63.0551813 115.836446,62.4507528 115.296708,61.9067671 L71.3097579,15.4799411 C67.3405064,11.3093843 60.9608733,11.1280558 56.8072393,15.117284 C56.6295617,15.117284 56.4485317,15.2986126 56.4485317,15.4799411 L12.6426117,61.9672099 C12.0995216,62.5111956 12.0995216,63.4782812 12.6426117,64.0222669 C13.0046718,64.3815661 13.3633795,64.3815661 13.7824306,64.3815661 L20.7654972,64.3815661 C23.2328697,64.3815661 25.0968088,66.2586524 25.0968088,68.7368093 L25.0968088,111.231492 C25.0968088,113.713007 27.1417779,115.764706 29.6091504,115.764706 L48.1412638,115.764706 L48.1412638,82.7595509 C48.1412638,77.8636799 52.1172201,74.0557803 56.8072393,74.0557803 L70.1665866,74.0557803 C75.0409884,74.0557803 78.8325622,78.0483664 78.8325622,82.7595509 L78.5911888,115.764706 Z M74.1228508,124 C71.6695344,124 69.8128805,122.140008 69.8128805,119.680017 L69.8128805,82.5935005 L56.5329719,82.5935005 L56.5329719,119.680017 C56.5329719,122.140008 54.676318,124 52.2263348,124 L29.429825,124 C22.309874,124 16.5065806,118.180023 16.5065806,111.036719 L16.5065806,73.1735385 L14.0532642,73.1735385 C8.4866358,73.2335383 4,68.7335565 4,63.0902459 C4,60.4502566 4.95666008,58.0535996 6.81331398,56.130274 L50.369681,9.86712748 C57.4296324,2.36715776 69.2162179,2.00382589 76.8761652,9.08713063 C77.0528307,9.44712917 77.2328295,9.62379513 77.592827,9.80712772 L121.149194,56.130274 C125.095833,60.0935914 124.859168,66.4535657 120.969195,70.3535499 C119.112541,72.2135424 116.482559,73.1735385 113.849244,73.1735385 L110.13927,73.1735385 L110.13927,111.036719 C110.13927,118.180023 104.335976,124 97.2760249,124 L74.1228508,124 Z" id="Fill-55" ></path>
            </g>
        </g>
    </g>
</svg>