<?xml version="1.0" encoding="UTF-8"?>
<svg width="115px" height="115px" viewBox="0 0 115 115" version="1.1" xmlns="http://www.w3.org/2000/svg" xmlns:xlink="http://www.w3.org/1999/xlink">
    <!-- Generator: Sketch 61 (89581) - https://sketch.com -->
    <title>编组 21</title>
    <desc>Created with Sketch.</desc>
    <g id="页面-1" stroke="none" stroke-width="1" fill="none" fill-rule="evenodd">
        <g id="-" transform="translate(-662.000000, -277.000000)" fill="#FFFFFF">
            <g id="编组-21" transform="translate(655.000000, 270.000000)">
                <path d="M64.5,112.416667 C38.0372222,112.416667 16.5833333,90.9627778 16.5833333,64.5 C16.5833333,38.0372222 38.0372222,16.5833333 64.5,16.5833333 C90.9659722,16.5833333 112.416667,38.0372222 112.416667,64.5 C112.416667,90.9627778 90.9659722,112.416667 64.5,112.416667 L64.5,112.416667 Z M64.5,7 C32.7440278,7 7,32.7440278 7,64.5 C7,96.2559722 32.7440278,122 64.5,122 C96.2559722,122 122,96.2559722 122,64.5 C122,32.7440278 96.2559722,7 64.5,7 L64.5,7 Z M69.2916667,62.2511111 L69.2916667,40.5416667 C69.2916667,37.8966667 67.1481944,35.75 64.5,35.75 C61.855,35.75 59.7083333,37.8966667 59.7083333,40.5416667 L59.7083333,64.4552778 C59.6572222,65.79375 60.1076389,67.145 61.1298611,68.1672222 L75.2077778,82.2515278 C77.1531944,84.19375 80.3061111,84.19375 82.2515278,82.2515278 C84.19375,80.3029167 84.19375,77.1531944 82.2515278,75.2109722 L69.2916667,62.2511111 Z" id="Fill-38备份"></path>
                <rect id="矩形" fill-opacity="0" x="0" y="0" width="128" height="128"></rect>
            </g>
        </g>
    </g>
</svg>