<?xml version="1.0" encoding="UTF-8"?>
<svg width="107px" height="125px" viewBox="0 0 107 125" version="1.1" xmlns="http://www.w3.org/2000/svg" xmlns:xlink="http://www.w3.org/1999/xlink">
    <!-- Generator: Sketch 61 (89581) - https://sketch.com -->
    <title>编组 31</title>
    <desc>Created with Sketch.</desc>
    <g id="页面-1" stroke="none" stroke-width="1" fill="none" fill-rule="evenodd">
        <g id="-" transform="translate(-114.000000, -1503.000000)">
            <g id="编组-31" transform="translate(103.000000, 1501.000000)">
                <rect id="矩形" fill-opacity="0" fill="#FFFFFF" x="0" y="0" width="128" height="128"></rect>
                <path d="M28.9709288,125.405217 C19.6034604,125.392374 12.0128234,117.790148 12,108.408378 L12,19.9968386 C12.0128234,10.6150687 19.6034604,3.01284296 28.9709288,3 L99.5900133,3 C108.957482,3.01284296 116.548119,10.6150687 116.560942,19.9968386 L116.560942,108.39672 C116.548119,117.77849 108.957482,125.380716 99.5900133,125.393559 L28.9709288,125.405217 Z M28.9709288,10.4842047 C23.7214851,10.490628 19.4675694,14.7510382 19.4611559,20.0084963 L19.4611559,108.408378 C19.4675694,113.665836 23.7214851,117.926246 28.9709288,117.93267 L99.5900133,117.93267 C104.839457,117.926246 109.093373,113.665836 109.099786,108.408378 L109.099786,19.9968386 C109.093373,14.7393805 104.839457,10.4789703 99.5900133,10.472547 L28.9709288,10.4842047 Z" id="形状" stroke="#818181" stroke-width="2" fill="#818181" fill-rule="nonzero"></path>
                <path d="M36.2018107,68.2154746 C34.8192784,68.2928483 33.5073881,67.5981238 32.7928513,66.4102265 C32.0783145,65.2223292 32.0783145,63.736073 32.7928513,62.5481757 C33.5073881,61.3602784 34.8192784,60.6655539 36.2018107,60.7429276 L92.0731814,60.7429276 C93.4557137,60.6655539 94.767604,61.3602784 95.4821408,62.5481757 C96.1966777,63.736073 96.1966777,65.2223292 95.4821408,66.4102265 C94.767604,67.5981238 93.4557137,68.2928483 92.0731814,68.2154746 L36.2018107,68.2154746 Z M36.2018107,85.8884564 C34.7664123,86.0689309 33.3559796,85.4033239 32.5811341,84.179798 C31.8062886,82.9562721 31.8062886,81.3947241 32.5811341,80.1711983 C33.3559796,78.9476724 34.7664123,78.2820654 36.2018107,78.4625399 L74.3223813,78.4625399 C76.3859369,78.4625399 78.0587792,80.1379362 78.0587792,82.2046422 C78.0587792,84.2713483 76.3859369,85.9467446 74.3223813,85.9467446 L36.2018107,85.8884564 Z M36.2018107,50.4842047 C34.1382552,50.4842047 32.4654128,48.8088084 32.4654128,46.7421023 C32.4654128,44.6753963 34.1382552,43 36.2018107,43 L92.0731814,43 C94.136737,43 95.8095793,44.6753963 95.8095793,46.7421023 C95.8095793,48.8088084 94.136737,50.4842047 92.0731814,50.4842047 L36.2018107,50.4842047 Z" id="形状" stroke="#818181" stroke-width="2" fill="#818181" fill-rule="nonzero"></path>
            </g>
        </g>
    </g>
</svg>