<svg
  width="24px"
  height="24px"
  viewBox="0 0 24 24"
  version="1.1"
  xmlns="http://www.w3.org/2000/svg"
  xmlns:xlink="http://www.w3.org/1999/xlink"
  class="icon"
  @click="toggleShowEmoji"
  :style="`color: ${emojiShow ? '#6486FF' : '#999999'}`"
>
  <title>编组 64备份</title>
  <desc>Created with Sketch.</desc>
  <g id="页面-1" stroke="none" stroke-width="1" fill="none" fill-rule="evenodd">
    <g id="编组-64备份">
      <g
        id="xiaolian-2"
        transform="translate(11.700000, 12.300000) scale(1, -1) rotate(-180.000000) translate(-11.700000, -12.300000) translate(1.200000, 1.800000)"
        fill="currentColor"
        fill-rule="nonzero"
        stroke="currentColor"
        stroke-width="0.8"
      >
        <path
          d="M7.0752757,8.67443386 C7.70548579,8.67496229 8.21680043,8.16415534 8.21732931,7.5335142 C8.21785738,6.90287307 7.70739957,6.39120871 7.07718947,6.39067947 C6.44697937,6.39015104 5.93566474,6.90095799 5.93513585,7.53159912 C5.93460779,8.16224026 6.4450656,8.67390462 7.0752757,8.67443386 L7.0752757,8.67443386 Z M13.9237674,8.67443386 C14.5539775,8.67496229 15.0652922,8.16415534 15.0658211,7.5335142 C15.0663491,6.90287307 14.5558913,6.39120871 13.9256812,6.39067947 C13.2954711,6.39015104 12.7841565,6.90095799 12.7836276,7.53159912 C12.7830995,8.16224026 13.2935574,8.67390462 13.9237674,8.67443386 L13.9237674,8.67443386 Z M10.4990431,0 C4.70026429,0 0,4.70156399 0,10.5004788 C0,16.298436 4.70122118,21 10.5,21 C16.2987788,21 21,16.298436 21,10.5004788 C21,4.70156399 16.2987788,0 10.4990431,0 Z M10.4990431,20.014726 C5.24378021,20.014726 0.983687252,15.7535908 0.983687252,10.5004788 C0.983687252,5.24449408 5.24378021,0.984360058 10.4990431,0.984360058 C15.754306,0.984360058 20.0144246,5.24449411 20.0144246,10.4995212 C20.020268,13.0260572 19.0194301,15.450707 17.2334871,17.2366134 C15.4475442,19.0225198 13.0238475,20.0223346 10.4990431,20.014726 L10.4990431,20.014726 Z M15.5227376,10.5004788 C15.4016051,10.5 15.2852593,10.5477654 15.1994256,10.6332985 C15.1135919,10.7188316 15.0653411,10.8350555 15.0653422,10.9562719 C15.0653422,13.4796298 13.0211547,15.5252154 10.4995216,15.5252154 C7.97788845,15.5252154 5.93370092,13.4796298 5.93370092,10.9562719 C5.93370092,10.7042799 5.72956064,10.5 5.47774084,10.5 C5.22592103,10.5 5.02178075,10.7042799 5.02178075,10.9562719 C5.02336581,13.9824466 7.47589345,16.4345083 10.5,16.4334507 C13.5241066,16.4345083 15.9766342,13.9824467 15.9782193,10.9562719 C15.9776916,10.7043895 15.7734916,10.5004782 15.5217808,10.5004788 L15.5227376,10.5004788 Z"
          id="形状"
        ></path>
      </g>
    </g>
  </g>
</svg>