<?xml version="1.0" encoding="UTF-8"?>
<svg width="110px" height="110px" viewBox="0 0 110 110" version="1.1" xmlns="http://www.w3.org/2000/svg" xmlns:xlink="http://www.w3.org/1999/xlink">
    <!-- Generator: Sketch 61 (89581) - https://sketch.com -->
    <title>编组 20</title>
    <desc>Created with Sketch.</desc>
    <g id="页面-1" stroke="none" stroke-width="1" fill="none" fill-rule="evenodd">
        <g id="-" transform="translate(-664.000000, -64.000000)">
            <g id="编组-20" transform="translate(655.000000, 55.000000)">
                <rect id="矩形" fill-opacity="0" fill="#FFFFFF" x="0" y="0" width="128" height="128"></rect>
                <path d="M41.0854976,50.2488542 C46.1484125,50.2488542 50.2488542,46.1423016 50.2488542,41.0824422 C50.2488542,36.0225827 46.1484125,31.9160301 41.0854976,31.9160301 C36.0225827,31.9160301 31.9190856,36.0225827 31.9190856,41.0824422 C31.9190856,46.1453571 36.0225827,50.2488542 41.0854976,50.2488542 L41.0854976,50.2488542 Z M109.833588,59.497764 C109.191939,59.543596 108.547235,59.7116469 107.93003,60.0752479 L68.7405628,85.1514958 L48.9502792,65.4620427 C48.0428044,64.5606789 46.8542263,64.1115247 45.6687036,64.1145802 C44.4801256,64.1084692 43.2915475,64.5606789 42.3840727,65.4620427 L18.1694675,89.5941502 L18.1694675,18.166412 L109.833588,18.166412 L109.833588,59.497764 Z M109.833588,109.830532 L18.1694675,109.830532 L18.1694675,100.69162 C19.3549901,100.694675 20.5435682,100.245521 21.451043,99.3441571 L45.6717591,75.2120497 L65.223716,94.669287 C66.2747979,95.863976 67.7780895,96.331463 69.2905475,95.9525847 C70.2194106,95.8059221 71.1268854,95.4575984 71.8418655,94.7456737 C71.8754757,94.7120636 71.8846421,94.6662315 71.9151968,94.6295658 L109.833588,70.3691286 L109.833588,109.830532 Z M109.833588,9 L18.1694675,9 C13.1034971,9 9,13.1065526 9,18.166412 L9,109.830532 C9,114.893447 13.1034971,118.996945 18.1694675,118.996945 L109.833588,118.996945 C114.893447,118.996945 119,114.893447 119,109.830532 L119,18.166412 C119,13.1034971 114.896503,9 109.833588,9 L109.833588,9 Z" id="Fill-45备份" fill="currentColor"></path>
            </g>
        </g>
    </g>
</svg>