<?xml version="1.0" encoding="UTF-8"?>
<svg width="112px" height="112px" viewBox="0 0 112 112" version="1.1" xmlns="http://www.w3.org/2000/svg" xmlns:xlink="http://www.w3.org/1999/xlink">
    <!-- Generator: Sketch 61 (89581) - https://sketch.com -->
    <title>编组 9</title>
    <desc>Created with Sketch.</desc>
    <g id="页面-1" stroke="none" stroke-width="1" fill="none" fill-rule="evenodd">
        <g id="-" transform="translate(-287.000000, -875.000000)">
            <g id="编组-9" transform="translate(279.000000, 867.000000)">
                <g id="编组-8备份" fill="#FFFFFF" fill-opacity="0">
                    <g id="编组-6备份-2">
                        <g id="编组-5备份">
                            <g id="编组备份-5">
                                <rect id="矩形" x="0" y="0" width="128" height="128"></rect>
                            </g>
                        </g>
                    </g>
                </g>
                <path d="M101.332815,110.667963 C96.1784197,110.667963 92.0007777,106.48721 92.0007777,101.332815 C92.0007777,96.1784197 96.1784197,92.0007777 101.332815,92.0007777 C106.48721,92.0007777 110.664852,96.1815303 110.664852,101.332815 C110.664852,106.48721 106.48721,110.667963 101.332815,110.667963 M26.6671851,73.3335926 C21.5127899,73.3335926 17.3351479,69.1528399 17.3351479,64.0015553 C17.3351479,58.8440494 21.5127899,54.6664074 26.6671851,54.6664074 C31.8215803,54.6664074 35.9992223,58.8471601 35.9992223,64.0015553 C35.9992223,69.1528399 31.8215803,73.3335926 26.6671851,73.3335926 M101.332815,17.3320372 C106.48721,17.3320372 110.664852,21.5127899 110.664852,26.6671851 C110.664852,31.8215803 106.48721,35.9992223 101.332815,35.9992223 C96.1784197,35.9992223 92.0007777,31.8215803 92.0007777,26.6671851 C92.0007777,21.5127899 96.1784197,17.3320372 101.332815,17.3320372 M101.332815,82.6656298 C95.089682,82.6656298 89.5931121,85.7607555 86.2055826,90.4734342 L45.1570615,65.7435356 C45.2130537,65.1618386 45.3343702,64.595695 45.3343702,63.9984447 C45.3343702,63.500736 45.2254965,63.0341341 45.1881683,62.5426469 L86.4699903,37.8469657 C89.8761839,42.3667824 95.2389946,45.3312595 101.332815,45.3312595 C111.641605,45.3312595 120,36.9759756 120,26.6671851 C120,16.3583947 111.641605,8 101.332815,8 C91.0240244,8 82.6687405,16.3583947 82.6687405,26.6671851 C82.6687405,27.2768782 82.7900569,27.8554645 82.8460492,28.4496042 L41.4055826,52.6662408 C37.9931676,48.2366338 32.6925705,45.3343702 26.6671851,45.3343702 C16.3583947,45.3343702 8,53.6896542 8,64.0015553 C8,74.3103458 16.3583947,82.6656298 26.6671851,82.6656298 C32.8667685,82.6656298 38.3228996,79.6109429 41.7166505,74.9604777 L82.8709346,99.3015415 C82.799389,99.9765588 82.6687405,100.636023 82.6687405,101.332815 C82.6687405,111.641605 91.0240244,120 101.332815,120 C111.641605,120 119.996889,111.641605 119.996889,101.332815 C119.996889,91.0240244 111.641605,82.6656298 101.332815,82.6656298" id="Fill-25备份" fill="currentColor"></path>
            </g>
        </g>
    </g>
</svg>