<?xml version="1.0" encoding="UTF-8"?>
<svg width="115px" height="115px" viewBox="0 0 115 115" version="1.1" xmlns="http://www.w3.org/2000/svg" xmlns:xlink="http://www.w3.org/1999/xlink">
    <!-- Generator: Sketch 61 (89581) - https://sketch.com -->
    <title>编组 8</title>
    <desc>Created with Sketch.</desc>
    <g id="页面-1" stroke="none" stroke-width="1" fill="none" fill-rule="evenodd">
        <g id="-" transform="translate(-286.000000, -667.000000)">
            <g id="编组-8" transform="translate(279.000000, 661.000000)">
                <g id="编组-6备份-2" fill="#FFFFFF" fill-opacity="0">
                    <g id="编组-5备份">
                        <g id="编组备份-5">
                            <rect id="矩形" x="0" y="0" width="128" height="128"></rect>
                        </g>
                    </g>
                </g>
                <path d="M26.1656016,34.7484023 L26.1656016,44.3343984 L16.5828008,44.3343984 L16.5828008,111.417199 L83.6687969,111.417199 L83.6687969,101.834398 L93.2515977,101.834398 L93.2515977,111.417199 C93.2515977,116.708669 88.9602667,121 83.6687969,121 L83.6687969,121 L16.5828008,121 C11.2913309,121 7,116.708669 7,111.417199 L7,111.417199 L7,44.3343984 C7,39.0429286 11.2913309,34.7484023 16.5828008,34.7484023 L16.5828008,34.7484023 L26.1656016,34.7484023 Z M112.417199,6 C117.708669,6 122,10.2913309 122,15.5828008 L122,15.5828008 L122,82.6656016 C122,87.9570714 117.708669,92.2484023 112.417199,92.2484023 L112.417199,92.2484023 L45.3343984,92.2484023 C40.0397333,92.2484023 35.7515977,87.9570714 35.7515977,82.6656016 L35.7515977,82.6656016 L35.7515977,15.5828008 C35.7515977,10.2913309 40.0397333,6 45.3343984,6 L45.3343984,6 Z M112.417199,15.5828008 L45.3343984,15.5828008 L45.3343984,82.6656016 L112.417199,82.6656016 L112.417199,15.5828008 Z M95.3525285,30.4378994 C97.7394415,31.5882189 98.7395804,34.4512365 97.5924562,36.8381495 L84.4820089,64.0623784 C83.5329953,66.0275076 81.6669214,67.4813837 79.363087,68.0501528 C78.6601139,68.2258961 77.9411642,68.3089747 77.2286052,68.3089747 C75.3976799,68.3089747 73.608294,67.7465963 72.1767852,66.685746 L61.6545568,58.8507919 C59.529661,57.2691025 59.0919005,54.2654904 60.6703946,52.1437899 C62.2520839,50.0220895 65.2588914,49.5811336 67.3773965,51.162823 L76.707766,58.1094749 L88.9554737,32.6778272 C90.1089886,30.2941095 92.9688108,29.3003612 95.3525285,30.4378994 Z" id="形状结合" fill="currentColor"></path>
            </g>
        </g>
    </g>
</svg>