<?xml version="1.0" encoding="UTF-8"?>
<svg width="112px" height="112px" viewBox="0 0 112 112" version="1.1" xmlns="http://www.w3.org/2000/svg" xmlns:xlink="http://www.w3.org/1999/xlink">
    <!-- Generator: Sketch 61 (89581) - https://sketch.com -->
    <title>编组 14</title>
    <desc>Created with Sketch.</desc>
    <g id="页面-1" stroke="none" stroke-width="1" fill="none" fill-rule="evenodd">
        <g id="-" transform="translate(-475.000000, -875.000000)" fill="#FFFFFF">
            <g id="编组-14" transform="translate(467.000000, 867.000000)">
                <path d="M65.1874272,64.5138361 C62.5779591,64.5138361 60.4848846,62.5490961 60.4298841,60.0404623 L60.4298841,13.5039297 C60.4298841,11.0197405 62.5993482,9 65.2668724,9 C67.9435633,9 70.1191385,11.0197405 70.1191385,13.5039297 L70.1191385,60.0068509 C70.0702492,62.4849289 67.9313409,64.5138361 65.3554843,64.5138361 L65.1874272,64.5138361 Z M63.7818589,119.000996 C49.2983944,119.000996 35.5604922,113.724004 25.092064,104.138639 C20.0595185,99.5247088 16.0903158,94.0949374 13.288346,87.9990488 C6.93884407,74.126701 7.67523963,57.9137763 15.2653084,44.6250449 C19.3170117,37.5941479 25.1134531,31.4707591 32.0221268,26.9209956 C32.8410231,26.3771018 33.8035318,26.0868214 34.8118743,26.0868214 C36.3671662,26.0868214 37.8002347,26.7651609 38.7444099,27.9537828 C39.4746943,28.8918468 39.7833082,30.0499129 39.60914,31.2110345 C39.4349717,32.387434 38.7932992,33.4232768 37.7971791,34.1352277 C31.9946266,37.966929 27.1515271,43.0605863 23.8178858,48.8509165 C20.4109105,54.7726368 18.6203388,61.4613085 18.6356167,68.1988695 C18.6356167,79.3486927 23.3503816,89.8385099 31.9121258,97.7310814 C40.5074814,105.63282 51.8131394,109.987026 63.7482475,109.987026 L64.2463076,109.987026 C76.1753045,109.987026 87.484018,105.635875 96.0885404,97.734137 C104.515839,90.0768454 109.349772,79.3059145 109.346716,68.1958139 C109.371161,61.4582529 107.5867,54.7665256 104.179725,48.8509165 C100.833861,43.0605863 96.0610401,38.0188739 90.365433,34.2757845 C89.3326459,33.6157785 88.6420841,32.6135472 88.4098597,31.4432588 C88.1776354,30.2974151 88.4220821,29.1301823 89.1004215,28.1615624 L89.2959789,27.9110046 C90.2095983,26.7621053 91.6304445,26.0959882 93.1857363,26.0959882 C94.1879676,26.0959882 95.1565875,26.383213 95.9754838,26.9240512 C102.884158,31.4768702 108.671432,37.600259 112.723136,44.6250449 C120.322371,57.9137763 121.067933,74.126701 114.706209,87.9959933 C111.904239,94.097993 107.931981,99.5308199 102.899435,104.147806 C97.8302228,108.822849 91.9451695,112.483437 85.4123326,115.022627 C78.6136599,117.665706 71.4422061,119.000996 64.1057507,119.000996 L63.7818589,119.000996 Z" id="Fill-65备份" stroke="#FAFAFA"></path>
                <rect id="矩形" fill-opacity="0" x="0" y="0" width="128" height="128"></rect>
            </g>
        </g>
    </g>
</svg>