<?xml version="1.0" encoding="UTF-8"?>
<svg width="122px" height="122px" viewBox="0 0 122 122" version="1.1" xmlns="http://www.w3.org/2000/svg" xmlns:xlink="http://www.w3.org/1999/xlink">
    <!-- Generator: Sketch 61 (89581) - https://sketch.com -->
    <title>编组 13</title>
    <desc>Created with Sketch.</desc>
    <g id="页面-1" stroke="none" stroke-width="1" fill="none" fill-rule="evenodd">
        <g id="-" transform="translate(-470.000000, -664.000000)">
            <g id="编组-13" transform="translate(467.000000, 661.000000)">
                <rect id="矩形" fill-opacity="0" fill="#FFFFFF" x="0" y="0" width="128" height="128"></rect>
                <path d="M99.0033326,84.0033309 L29.0033326,84.0033309 L29.0033326,48.9999997 C29.0033326,29.6699992 44.6699987,13.9999997 64.0033326,13.9999997 C83.3333309,13.9999997 99.0033326,29.6699992 99.0033326,48.9999997 L99.0033326,84.0033309 Z M109.00333,84.0033309 L109.00333,44 C109.00333,21.9099994 91.0933306,4 69.0033313,4 L59,4 C36.9133323,4 19.0033329,21.9099994 19.0033329,44 L19.0033329,84.0033309 L9.00333318,84.0033309 C6.23999993,84.0033309 4,86.2399975 4,89 C4,91.7599973 6.23999993,94 9.00333318,94 L119,94 C121.76333,94 124,91.7599973 124,89 C124.00333,86.2399975 121.76333,84.0033309 119.00333,84.0033309 L109.00333,84.0033309 Z M64.0033319,113.999997 C61.2399982,113.999997 58.9999983,111.76333 58.9999983,108.999997 L58.9999983,103.999997 L49.0033319,103.999997 L49.0033319,108.999997 C49.0033319,117.28333 55.7166651,123.999997 64.0033319,123.999997 C72.2833312,123.999997 78.9999977,117.28333 78.9999977,108.999997 L78.9999977,103.999997 L68.999998,103.999997 L68.999998,108.999997 C69.0033319,111.759997 66.7633314,113.999997 64.0033319,113.999997 Z" id="Fill-7备份" stroke="#FAFAFA" fill="#FAFAFA"></path>
            </g>
        </g>
    </g>
</svg>