<?xml version="1.0" encoding="UTF-8"?>
<svg width="60px" height="105px" viewBox="0 0 60 105" version="1.1" xmlns="http://www.w3.org/2000/svg" xmlns:xlink="http://www.w3.org/1999/xlink">
    <!-- Generator: Sketch 61 (89581) - https://sketch.com -->
    <title>编组 19</title>
    <desc>Created with Sketch.</desc>
    <g id="页面-1" stroke="none" stroke-width="1" fill="none" fill-rule="evenodd">
        <g id="-" transform="translate(-713.000000, -1513.000000)">
            <g id="编组-19" transform="translate(679.000000, 1501.000000)">
                <rect id="矩形" fill-opacity="0" fill="#FFFFFF" x="0" y="0" width="128" height="128"></rect>
                <path d="M39.073176,116.089276 C37.6738969,116.089276 36.2804119,115.512761 35.2780298,114.382909 C33.4210156,112.291233 33.6093243,109.084189 35.7067944,107.230072 L83.7371211,64.6085529 C83.9254299,64.3275382 83.8993564,63.9364354 83.6531064,63.6901854 L35.6923091,20.8484898 C33.6035302,18.9856815 33.4239126,15.7786381 35.289618,13.6898592 C37.1582205,11.6068744 40.3594698,11.4214627 42.4482487,13.2900652 L90.6147371,56.3258637 C95.0066772,60.7062156 95.1022802,67.357861 91.0348106,71.6599923 L90.7132371,71.9728746 L42.4337634,114.811673 C41.469043,115.669202 40.269661,116.089276 39.073176,116.089276 L39.073176,116.089276 Z" id="Fill-66备份" fill="#818181"></path>
            </g>
        </g>
    </g>
</svg>