<?xml version="1.0" encoding="UTF-8"?>
<svg width="128px" height="115px" viewBox="0 0 128 115" version="1.1" xmlns="http://www.w3.org/2000/svg" xmlns:xlink="http://www.w3.org/1999/xlink">
    <!-- Generator: Sketch 61 (89581) - https://sketch.com -->
    <title>编组 7</title>
    <desc>Created with Sketch.</desc>
    <g id="页面-1" stroke="none" stroke-width="1" fill="none" fill-rule="evenodd">
        <g id="-" transform="translate(-279.000000, -472.000000)">
            <g id="编组-7" transform="translate(279.000000, 465.000000)">
                <g id="编组-6备份" fill="#FFFFFF" fill-opacity="0">
                    <g id="编组-5备份">
                        <g id="编组备份-5">
                            <rect id="矩形" x="0" y="0" width="128" height="128"></rect>
                        </g>
                    </g>
                </g>
                <path d="M101.94186,67.4404946 C102.347199,67.8887172 102.727649,68.3639876 103.072542,68.87017 L117.117182,53.564915 C117.792747,52.8230294 117.792747,51.6174652 117.117182,50.8794436 L87.740774,18.8585781 C87.4136583,18.5030912 86.9798745,18.3060278 86.5140903,18.3060278 C86.0554173,18.3060278 85.6216335,18.5030912 85.2909622,18.862442 L61.7457465,44.5231839 C62.4390894,44.8902628 63.1999889,45.0795981 63.9928888,45.0795981 C65.3831303,45.0795981 66.6844817,44.496136 67.6658287,43.4219474 L75.0045972,35.423493 C75.9717217,34.3299845 77.2979624,33.7156105 78.7237599,33.7156105 C80.0784454,33.7156105 81.3584632,34.2758887 82.3291433,35.3037094 C84.3878386,37.4675425 84.4482838,41.053323 82.4607007,43.2905719 L81.1237933,44.7511592 L101.94186,67.4404946 Z M41.4859097,18.3214838 C41.0236811,18.3214838 40.5898973,18.5185471 40.259226,18.874034 L10.8899294,50.8987635 C10.2108089,51.6367852 10.2108089,52.8384853 10.8863738,53.576507 L62.7733163,110.141422 C63.0968764,110.493045 63.5342158,110.690108 63.9928888,110.690108 C64.4515618,110.690108 64.8889012,110.493045 65.2160169,110.137558 L66.4498118,108.796754 L60.3199489,102.119784 C58.2861429,99.9791345 58.2256976,96.3972179 60.2132808,94.1522411 C61.2017389,93.0355487 62.5279796,92.4250386 63.9466659,92.4250386 C65.304907,92.4250386 66.5884804,92.9891808 67.5627161,94.0170015 L73.7885803,100.794436 L76.2383921,98.1244204 L70.1120848,91.4435858 C68.0818344,89.3029366 68.0249448,85.7171561 70.0089723,83.4760433 C70.9938749,82.3632148 72.3236711,81.7488408 73.7423575,81.7488408 C75.1005985,81.7488408 76.3806163,82.312983 77.354852,83.3369397 L83.5771606,90.122102 L86.0269724,87.4482226 L79.9077764,80.7673879 C77.8633035,78.6846986 77.7530798,75.0989181 79.7122181,72.8268934 C80.6864538,71.690881 82.0695842,71.0378671 83.5024929,71.0378671 C84.8287336,71.0378671 86.0909733,71.5788253 87.0545422,72.5680062 L93.3728522,79.4497682 L94.5924247,78.1205564 C95.2715452,77.3748068 95.2715452,76.1769706 94.5959803,75.435085 L73.7210238,52.6761978 C70.96543,55.0873261 67.5769385,56.3933539 63.9928888,56.3933539 C59.8292754,56.3933539 55.9216656,54.6275116 52.9776248,51.4204019 L46.8655399,44.7511592 L56.6576759,34.0749614 L42.7090378,18.87017 C42.3819221,18.5185471 41.9481383,18.3214838 41.4859097,18.3214838 L41.4859097,18.3214838 Z M63.9964444,122 C60.7608439,122 57.7172461,120.628284 55.4274366,118.132148 L3.54049409,61.5672334 C-1.17779362,56.4242658 -1.18134923,48.0510046 3.53693849,42.9080371 L32.9204575,10.8794436 C35.210267,8.38717156 38.2503092,7.01159196 41.4859097,7.01159196 C44.7250658,7.01159196 47.765108,8.38717156 50.0549175,10.8833076 L63.9928888,26.0803709 L77.9450825,10.8678516 C80.2384476,8.3755796 83.2784898,7 86.5140903,7 C89.7532464,7 92.7968442,8.3755796 95.0830981,10.8678516 L124.459506,42.8887172 C129.177794,48.0394127 129.181349,56.4088099 124.463062,61.5556414 L72.5654522,118.128284 C70.2756427,120.628284 67.2320449,122 63.9964444,122 L63.9964444,122 Z" id="Fill-53备份" fill="currentColor"></path>
            </g>
        </g>
    </g>
</svg>